# This file uses centimeters as units for non-parametric coordinates.

mtllib windmill-top.mtl
g default
v 2.508244 4.655284 -0.814978
v 2.133640 4.655284 -1.550180
v 1.550180 4.655284 -2.133640
v 0.814978 4.655284 -2.508244
v 0.000000 4.655284 -2.637323
v -0.814978 4.655284 -2.508243
v -1.550180 4.655284 -2.133639
v -2.133639 4.655284 -1.550179
v -2.508243 4.655284 -0.814977
v -2.637323 4.655284 0.000000
v -2.508243 4.655284 0.814977
v -2.133639 4.655284 1.550179
v -1.550179 4.655284 2.133639
v -0.814977 4.655284 2.508243
v -0.000000 4.655284 2.637322
v 0.814977 4.655284 2.508242
v 1.550179 4.655284 2.133638
v 2.133638 4.655284 1.550179
v 2.508242 4.655284 0.814977
v 2.637322 4.655284 0.000000
v 0.201707 7.646553 -0.065540
v 0.171584 7.646553 -0.124663
v 0.124662 7.646553 -0.171585
v 0.065539 7.646553 -0.201708
v -0.000000 7.646553 -0.212089
v -0.065540 7.646553 -0.201708
v -0.124663 7.646553 -0.171585
v -0.171584 7.646553 -0.124663
v -0.201708 7.646553 -0.065540
v -0.212089 7.646553 -0.000000
v -0.201708 7.646553 0.065539
v -0.171584 7.646553 0.124662
v -0.124663 7.646553 0.171584
v -0.065539 7.646553 0.201707
v -0.000000 7.646553 0.212088
v 0.065539 7.646553 0.201707
v 0.124662 7.646553 0.171584
v 0.171584 7.646553 0.124662
v 0.201707 7.646553 0.065539
v 0.212089 7.646553 -0.000000
v 0.000000 4.655284 0.000000
v -0.000000 7.646553 -0.000000
v -0.000000 7.181449 -1.144256
v 0.353594 7.181449 -1.088251
v 0.672576 7.181449 -0.925723
v 0.925723 7.181449 -0.672577
v 1.088251 7.181449 -0.353595
v 1.144255 7.181449 -0.000000
v 1.088250 7.181449 0.353594
v 0.925722 7.181449 0.672576
v 0.672576 7.181449 0.925722
v 0.353594 7.181449 1.088250
v -0.000000 7.181449 1.144255
v -0.353595 7.181449 1.088250
v -0.672577 7.181449 0.925722
v -0.925723 7.181449 0.672576
v -1.088251 7.181449 0.353594
v -1.144256 7.181449 -0.000000
v -1.088251 7.181449 -0.353595
v -0.925723 7.181449 -0.672577
v -0.672577 7.181449 -0.925723
v -0.353595 7.181449 -1.088251
v 0.666324 5.796990 -2.050733
v 1.267423 5.796990 -1.744458
v 1.744458 5.796990 -1.267423
v 2.050734 5.796990 -0.666324
v 2.156268 5.796990 -0.000000
v 2.050732 5.796990 0.666323
v 1.744457 5.796990 1.267422
v 1.267422 5.796990 1.744457
v 0.666323 5.796990 2.050732
v -0.000000 5.796990 2.156268
v -0.666324 5.796990 2.050732
v -1.267423 5.796990 1.744457
v -1.744458 5.796990 1.267422
v -2.050733 5.796990 0.666323
v -2.156268 5.796990 -0.000000
v -2.050733 5.796990 -0.666324
v -1.744458 5.796990 -1.267423
v -1.267423 5.796990 -1.744458
v -0.666324 5.796990 -2.050733
v -0.000000 6.560361 -1.723491
v 0.532588 6.560361 -1.639137
v 1.013042 6.560361 -1.394334
v 1.394333 6.560361 -1.013043
v 1.639137 6.560361 -0.532588
v 1.723490 6.560361 -0.000000
v 1.639136 6.560361 0.532588
v 1.394333 6.560361 1.013042
v 1.013042 6.560361 1.394333
v 0.532588 6.560361 1.639136
v -0.000000 6.560361 1.723490
v -0.532588 6.560361 1.639136
v -1.013042 6.560361 1.394333
v -1.394333 6.560361 1.013042
v -1.639136 6.560361 0.532588
v -1.723490 6.560361 -0.000000
v -1.639136 6.560361 -0.532588
v -1.394333 6.560361 -1.013042
v -1.013042 6.560361 -1.394333
v -0.532588 6.560361 -1.639137
v 0.523945 4.867114 -2.674308
v 0.000000 4.867114 -2.674308
v 0.523944 5.754922 -2.674304
v -0.523945 4.867114 -2.674308
v -0.523944 5.754922 -2.674304
v -0.000000 6.348531 -2.674302
v 0.523943 6.348531 -2.674301
v -0.523943 6.348531 -2.674301
v 0.417979 4.971278 -2.674307
v -0.000000 4.971278 -2.674308
v 0.417978 5.734236 -2.674304
v -0.417979 4.971278 -2.674307
v -0.417978 5.734236 -2.674304
v -0.000000 6.244368 -2.674302
v 0.417978 6.244368 -2.674302
v -0.417978 6.244368 -2.674302
v 0.417979 4.971278 -2.463256
v -0.000000 4.971278 -2.463257
v -0.000000 5.734236 -2.463254
v 0.417978 5.734236 -2.463253
v -0.417979 4.971278 -2.463256
v -0.417978 5.734236 -2.463253
v -0.000000 6.244368 -2.463251
v 0.417978 6.244368 -2.463251
v -0.417978 6.244368 -2.463251
vt 0.985715 0.107966
vt 0.963521 0.064408
vt 0.928954 0.029841
vt 0.885396 0.007647
vt 0.837112 -0.000000
vt 0.788828 0.007647
vt 0.745271 0.029841
vt 0.710703 0.064409
vt 0.688510 0.107966
vt 0.680862 0.156250
vt 0.688510 0.204534
vt 0.710703 0.248091
vt 0.745271 0.282659
vt 0.788829 0.304853
vt 0.837112 0.312500
vt 0.885396 0.304853
vt 0.928954 0.282659
vt 0.963521 0.248091
vt 0.985715 0.204534
vt 0.993362 0.156250
vt 0.004473 0.312500
vt 0.054025 0.312500
vt 0.103578 0.312500
vt 0.104786 0.292252
vt 0.049460 0.292252
vt 0.385529 0.292252
vt 0.301789 0.312500
vt 0.351342 0.312500
vt 0.400894 0.312500
vt 0.450447 0.312500
vt 0.500000 0.312500
vt 0.549553 0.312500
vt 0.599105 0.312500
vt 0.648658 0.312500
vt 0.698211 0.312500
vt 0.747764 0.312500
vt 0.797316 0.312500
vt 0.846869 0.312500
vt 0.896422 0.312500
vt 0.945974 0.312500
vt 0.995527 0.312500
vt 0.004473 0.688440
vt 0.054025 0.688440
vt 0.103578 0.688440
vt 0.153131 0.688440
vt 0.202683 0.688440
vt 0.252236 0.688440
vt 0.301789 0.688440
vt 0.351342 0.688440
vt 0.400894 0.688440
vt 0.450447 0.688440
vt 0.500000 0.688440
vt 0.549553 0.688440
vt 0.599105 0.688440
vt 0.648658 0.688440
vt 0.698211 0.688440
vt 0.747764 0.688440
vt 0.797316 0.688440
vt 0.846869 0.688440
vt 0.896422 0.688440
vt 0.945974 0.688440
vt 0.995527 0.688440
vt 0.549126 0.827490
vt 0.541697 0.813105
vt 0.530186 0.801720
vt 0.515721 0.794449
vt 0.499716 0.792004
vt 0.483740 0.794624
vt 0.469355 0.802053
vt 0.457970 0.813564
vt 0.450699 0.828029
vt 0.448254 0.844034
vt 0.450874 0.860010
vt 0.458303 0.874395
vt 0.469814 0.885780
vt 0.484279 0.893051
vt 0.500284 0.895496
vt 0.516260 0.892876
vt 0.530645 0.885447
vt 0.542030 0.873936
vt 0.549301 0.859471
vt 0.551746 0.843466
vt 0.837112 0.150000
vt 0.499989 0.841680
vt 0.202683 0.564025
vt 0.153131 0.564025
vt 0.103578 0.564025
vt 0.054025 0.564025
vt 0.995527 0.564025
vt 0.004473 0.564025
vt 0.945974 0.564025
vt 0.896422 0.564025
vt 0.846869 0.564025
vt 0.797316 0.564025
vt 0.747764 0.564025
vt 0.698211 0.564025
vt 0.648658 0.564025
vt 0.599105 0.564025
vt 0.549553 0.564025
vt 0.500000 0.564025
vt 0.450447 0.564025
vt 0.400894 0.564025
vt 0.351342 0.564025
vt 0.301789 0.564025
vt 0.252236 0.564025
vt -0.075540 0.148159
vt 0.163022 0.292252
vt 0.103578 0.416480
vt 0.054025 0.416480
vt 0.995527 0.416480
vt 0.004473 0.416480
vt 0.945974 0.416480
vt 0.896422 0.416480
vt 0.846869 0.416480
vt 0.797316 0.416480
vt 0.747764 0.416480
vt 0.698211 0.416480
vt 0.648658 0.416480
vt 0.599105 0.416480
vt 0.549553 0.416480
vt 0.500000 0.416480
vt 0.450447 0.416480
vt 0.400894 0.416480
vt 0.351342 0.416480
vt 0.301789 0.416480
vt 0.327138 0.292252
vt 0.246689 0.292252
vt 0.205375 0.292252
vt 0.103578 0.486004
vt 0.054025 0.486004
vt 0.995527 0.486004
vt 0.004473 0.486004
vt 0.945974 0.486004
vt 0.896422 0.486004
vt 0.846869 0.486004
vt 0.797316 0.486004
vt 0.747764 0.486004
vt 0.698211 0.486004
vt 0.648658 0.486004
vt 0.599105 0.486004
vt 0.549553 0.486004
vt 0.500000 0.486004
vt 0.450447 0.486004
vt 0.400894 0.486004
vt 0.351342 0.486004
vt 0.301789 0.486004
vt 0.282506 0.292252
vt 0.404367 0.296762
vt 0.404367 0.230206
vt 0.530747 0.296762
vt 0.404367 0.152799
vt 0.516866 0.152799
vt 0.606016 0.219355
vt 0.606016 0.296762
vt 0.606016 0.152799
vt 0.016353 0.093896
vt 0.075316 0.093896
vt 0.433816 0.093896
vt 0.134279 0.093896
vt 0.211982 0.093896
vt 0.322899 0.093896
vt 0.381862 0.093896
vt 0.263937 0.093896
vt -0.141227 0.024073
vt 0.075316 0.124898
vt -0.141227 0.148159
vt 0.134279 0.124898
vt 0.211982 0.124898
vt -0.075540 0.231125
vt 0.381862 0.124898
vt 0.263937 0.124898
vt 0.252236 0.486004
vt 0.202683 0.486004
vt 0.153131 0.486004
vt 0.250955 0.415445
vt 0.153131 0.416480
vt 0.250955 0.311464
vt 0.153131 0.312500
vt 0.591838 0.167357
vt 0.591838 0.219355
vt 0.516866 0.167357
vt 0.530747 0.282204
vt 0.591838 0.282204
vt 0.418545 0.167357
vt 0.418545 0.230206
vt 0.418545 0.282204
vt 0.282506 0.170464
vt 0.246689 0.170464
vt 0.327138 0.170464
vt 0.163022 0.170464
vt 0.205375 0.170464
vt 0.385529 0.170464
vt 0.049460 0.170464
vt 0.104786 0.170464
vt -0.009852 0.231125
vt 0.322899 0.124898
vt -0.009852 0.148159
vt 0.433816 0.124898
vt -0.141227 0.231125
vt -0.009852 0.024073
vt -0.075540 0.024073
vt 0.016353 0.124898
vt 0.004167 0.292252
vt 0.004167 0.170464
vt 0.511519 0.093896
vt 0.511519 0.124898
vn 0.876435 0.388288 -0.284770
vn 0.745540 0.388288 -0.541667
vn 0.732518 0.424469 -0.532206
vn 0.861127 0.424469 -0.279796
vn 0.541666 0.388288 -0.745540
vn 0.532206 0.424469 -0.732518
vn 0.419143 0.384217 -0.822616
vn 0.411971 0.420170 -0.808540
vn 0.000002 0.000004 -1.000000
vn 0.000000 0.000004 -1.000000
vn 0.000000 0.000004 -1.000000
vn 0.000002 0.000004 -1.000000
vn -0.000002 0.000004 -1.000000
vn -0.000002 0.000004 -1.000000
vn -0.419143 0.384217 -0.822616
vn -0.541667 0.388288 -0.745540
vn -0.532206 0.424469 -0.732518
vn -0.411971 0.420170 -0.808540
vn -0.745540 0.388287 -0.541666
vn -0.732519 0.424469 -0.532206
vn -0.876435 0.388287 -0.284771
vn -0.861127 0.424469 -0.279797
vn -0.921538 0.388288 0.000000
vn -0.905443 0.424469 0.000000
vn -0.876435 0.388288 0.284771
vn -0.861127 0.424469 0.279797
vn -0.745540 0.388288 0.541667
vn -0.732519 0.424469 0.532206
vn -0.541666 0.388288 0.745540
vn -0.532206 0.424469 0.732519
vn -0.284771 0.388288 0.876435
vn -0.279797 0.424469 0.861127
vn 0.000000 0.388288 0.921538
vn 0.000000 0.424469 0.905443
vn 0.284771 0.388288 0.876435
vn 0.279797 0.424469 0.861127
vn 0.541667 0.388288 0.745540
vn 0.532206 0.424469 0.732519
vn 0.745540 0.388288 0.541667
vn 0.732519 0.424469 0.532206
vn 0.876435 0.388288 0.284771
vn 0.861127 0.424469 0.279797
vn 0.921538 0.388287 0.000001
vn 0.905443 0.424469 0.000001
vn 0.000000 -1.000000 0.000000
vn 0.000000 -1.000000 0.000000
vn 0.000000 -1.000000 0.000000
vn 0.000000 -1.000000 -0.000000
vn 0.000000 -1.000000 -0.000000
vn 0.000000 -1.000000 0.000000
vn 0.000000 -1.000000 0.000000
vn 0.000000 -1.000000 0.000000
vn 0.000000 -1.000000 0.000000
vn 0.000000 -1.000000 0.000000
vn 0.000000 -1.000000 0.000000
vn 0.000000 -1.000000 0.000000
vn 0.000000 -1.000000 0.000000
vn 0.000000 -1.000000 0.000000
vn 0.000000 -1.000000 0.000000
vn 0.000000 -1.000000 -0.000000
vn 0.000000 -1.000000 0.000000
vn 0.000000 -1.000000 0.000000
vn 0.000000 -1.000000 0.000000
vn 0.000000 -1.000000 0.000000
vn 0.000000 -1.000000 0.000000
vn 0.000000 1.000000 0.000000
vn 0.000000 1.000000 0.000001
vn 0.000000 1.000000 0.000000
vn 0.000000 1.000000 0.000001
vn 0.000000 1.000000 0.000000
vn 0.000000 1.000000 0.000000
vn 0.000000 1.000000 0.000000
vn 0.000000 1.000000 -0.000001
vn 0.000000 1.000000 -0.000001
vn 0.000000 1.000000 0.000001
vn 0.000000 1.000000 0.000000
vn 0.000000 1.000000 -0.000001
vn 0.000000 1.000000 0.000001
vn 0.000000 1.000000 0.000001
vn 0.000000 1.000000 0.000000
vn 0.000000 1.000000 0.000000
vn 0.000000 1.000000 0.000000
vn 0.000000 1.000000 -0.000001
vn 0.000000 1.000000 -0.000001
vn 0.000000 1.000000 0.000000
vn 0.000000 1.000000 0.000000
vn 0.199958 0.762422 -0.615410
vn -0.000000 0.762422 -0.647080
vn -0.000000 0.894803 -0.446462
vn 0.137964 0.894803 -0.424611
vn 0.380343 0.762422 -0.523499
vn 0.262422 0.894803 -0.361196
vn 0.523499 0.762422 -0.380344
vn 0.361196 0.894803 -0.262422
vn 0.615410 0.762422 -0.199958
vn 0.424611 0.894803 -0.137964
vn 0.647080 0.762422 0.000001
vn 0.446462 0.894803 0.000001
vn 0.615410 0.762422 0.199958
vn 0.424611 0.894803 0.137964
vn 0.523499 0.762422 0.380343
vn 0.361196 0.894803 0.262422
vn 0.380343 0.762422 0.523499
vn 0.262422 0.894803 0.361196
vn 0.199958 0.762422 0.615410
vn 0.137964 0.894803 0.424611
vn 0.000000 0.762422 0.647080
vn -0.000000 0.894803 0.446462
vn -0.199958 0.762422 0.615410
vn -0.137964 0.894803 0.424611
vn -0.380343 0.762422 0.523499
vn -0.262422 0.894803 0.361196
vn -0.523499 0.762422 0.380343
vn -0.361196 0.894803 0.262422
vn -0.615410 0.762422 0.199958
vn -0.424611 0.894803 0.137964
vn -0.647080 0.762422 -0.000000
vn -0.446462 0.894803 -0.000000
vn -0.615410 0.762422 -0.199958
vn -0.424611 0.894802 -0.137964
vn -0.523499 0.762422 -0.380343
vn -0.361196 0.894803 -0.262422
vn -0.380344 0.762422 -0.523499
vn -0.262423 0.894803 -0.361196
vn -0.199959 0.762422 -0.615410
vn -0.137964 0.894803 -0.424611
vn 0.000000 0.000005 -1.000000
vn 0.000002 0.000005 -1.000000
vn 0.305060 0.600723 -0.738966
vn 0.483271 0.569212 -0.665167
vn 0.665166 0.569212 -0.483271
vn 0.781950 0.569212 -0.254070
vn 0.822191 0.569212 0.000001
vn 0.781950 0.569212 0.254071
vn 0.665167 0.569212 0.483271
vn 0.483271 0.569212 0.665167
vn 0.254071 0.569212 0.781950
vn 0.000000 0.569212 0.822191
vn -0.254071 0.569212 0.781950
vn -0.483271 0.569212 0.665167
vn -0.665167 0.569212 0.483272
vn -0.781950 0.569212 0.254071
vn -0.822191 0.569212 0.000000
vn -0.781950 0.569212 -0.254071
vn -0.665167 0.569212 -0.483271
vn -0.483272 0.569212 -0.665167
vn -0.305060 0.600722 -0.738966
vn -0.000002 0.000005 -1.000000
vn 0.000000 0.682037 -0.731318
vn 0.088753 -0.380257 -0.920613
vn 0.088753 -0.380257 -0.920613
vn 0.088753 -0.380257 -0.920613
vn 0.088753 -0.380257 -0.920613
vn 0.879139 0.165168 -0.447029
vn 0.879139 0.165168 -0.447029
vn 0.879139 0.165168 -0.447029
vn 0.879139 0.165168 -0.447029
vn -0.088753 -0.380258 -0.920612
vn -0.088753 -0.380258 -0.920612
vn -0.088753 -0.380258 -0.920612
vn -0.088753 -0.380258 -0.920612
vn -0.879139 0.165168 -0.447029
vn -0.879139 0.165168 -0.447029
vn -0.879139 0.165168 -0.447029
vn -0.879139 0.165168 -0.447029
vn 0.016661 0.977844 -0.208671
vn 0.016661 0.977844 -0.208671
vn 0.016661 0.977844 -0.208671
vn 0.016661 0.977844 -0.208671
vn 0.985379 0.130380 -0.109674
vn 0.985379 0.130380 -0.109674
vn 0.985379 0.130380 -0.109674
vn 0.985380 0.130380 -0.109674
vn -0.985379 0.130380 -0.109674
vn -0.985379 0.130380 -0.109674
vn -0.985379 0.130380 -0.109674
vn -0.985379 0.130380 -0.109674
vn -0.016661 0.977844 -0.208672
vn -0.016661 0.977844 -0.208672
vn -0.016661 0.977844 -0.208672
vn -0.016661 0.977844 -0.208672
vn 0.000002 0.000007 -1.000000
vn 0.000002 0.000007 -1.000000
vn 0.000002 0.000007 -1.000000
vn 0.000002 0.000007 -1.000000
vn -0.000004 0.000004 -1.000000
vn -0.000004 0.000004 -1.000000
vn -0.000004 0.000004 -1.000000
vn -0.000004 0.000004 -1.000000
vn -0.000002 0.000007 -1.000000
vn -0.000002 0.000007 -1.000000
vn -0.000002 0.000007 -1.000000
vn -0.000002 0.000007 -1.000000
vn 0.000004 0.000004 -1.000000
vn 0.000004 0.000004 -1.000000
vn 0.000004 0.000004 -1.000000
vn 0.000004 0.000004 -1.000000
vn 0.000001 0.000005 -1.000000
vn 0.000001 0.000005 -1.000000
vn 0.000001 0.000005 -1.000000
vn 0.000001 0.000005 -1.000000
vn -0.000001 0.000005 -1.000000
vn -0.000001 0.000005 -1.000000
vn -0.000001 0.000005 -1.000000
vn -0.000001 0.000005 -1.000000
vn 0.000002 0.000005 -1.000000
vn 0.000002 0.000005 -1.000000
vn 0.000002 0.000005 -1.000000
vn 0.000002 0.000005 -1.000000
vn -0.000001 0.000005 -1.000000
vn -0.000001 0.000005 -1.000000
vn -0.000001 0.000005 -1.000000
vn -0.000001 0.000005 -1.000000
vn 0.000000 1.000000 0.000000
vn 0.000000 1.000000 0.000000
vn 0.000000 1.000000 0.000000
vn 0.000000 1.000000 0.000000
vn -1.000000 -0.000001 0.000000
vn -1.000000 -0.000001 0.000000
vn -1.000000 -0.000001 0.000000
vn -1.000000 -0.000001 0.000000
vn 0.000000 1.000000 0.000000
vn 0.000000 1.000000 0.000000
vn 0.000000 1.000000 0.000000
vn 0.000000 1.000000 0.000000
vn 1.000000 -0.000001 0.000000
vn 1.000000 -0.000001 0.000000
vn 1.000000 -0.000001 0.000000
vn 1.000000 -0.000001 0.000000
vn 0.000000 -1.000000 0.000000
vn 0.000000 -1.000000 0.000000
vn 0.000000 -1.000000 0.000000
vn 0.000000 -1.000000 0.000000
vn -1.000000 -0.000002 0.000000
vn -1.000000 -0.000002 0.000000
vn -1.000000 -0.000002 0.000000
vn -1.000000 -0.000002 0.000000
vn 1.000000 -0.000002 0.000000
vn 1.000000 -0.000002 0.000000
vn 1.000000 -0.000002 0.000000
vn 1.000000 -0.000002 0.000000
vn 0.000000 -1.000000 0.000000
vn 0.000000 -1.000000 0.000000
vn 0.000000 -1.000000 0.000000
vn 0.000000 -1.000000 0.000000
s 1
g pCylinder2
usemtl initialShadingGroup
f 1/21/1 2/22/2 65/109/3 66/111/4
f 2/22/2 3/23/5 64/108/6 65/109/3
f 3/23/5 4/178/7 63/176/8 64/108/6
s 2
f 118/164/9 119/201/10 120/106/11 121/166/12
f 119/201/10 122/200/13 123/197/14 120/106/11
s 1
f 6/177/15 7/27/16 80/125/17 81/175/18
f 7/27/16 8/28/19 79/124/20 80/125/17
f 8/28/19 9/29/21 78/123/22 79/124/20
f 9/29/21 10/30/23 77/122/24 78/123/22
f 10/30/23 11/31/25 76/121/26 77/122/24
f 11/31/25 12/32/27 75/120/28 76/121/26
f 12/32/27 13/33/29 74/119/30 75/120/28
f 13/33/29 14/34/31 73/118/32 74/119/30
f 14/34/31 15/35/33 72/117/34 73/118/32
f 15/35/33 16/36/35 71/116/36 72/117/34
f 16/36/35 17/37/37 70/115/38 71/116/36
f 17/37/37 18/38/39 69/114/40 70/115/38
f 18/38/39 19/39/41 68/113/42 69/114/40
f 19/39/41 20/40/43 67/112/44 68/113/42
f 20/40/43 1/41/1 66/110/4 67/112/44
s 4
f 2/2/45 1/1/46 41/83/47
f 3/3/48 2/2/45 41/83/47
f 4/4/49 3/3/48 41/83/47
f 5/5/50 4/4/49 41/83/47
f 6/6/51 5/5/50 41/83/47
f 7/7/52 6/6/51 41/83/47
f 8/8/53 7/7/52 41/83/47
f 9/9/54 8/8/53 41/83/47
f 10/10/55 9/9/54 41/83/47
f 11/11/56 10/10/55 41/83/47
f 12/12/57 11/11/56 41/83/47
f 13/13/58 12/12/57 41/83/47
f 14/14/59 13/13/58 41/83/47
f 15/15/60 14/14/59 41/83/47
f 16/16/61 15/15/60 41/83/47
f 17/17/62 16/16/61 41/83/47
f 18/18/63 17/17/62 41/83/47
f 19/19/64 18/18/63 41/83/47
f 20/20/65 19/19/64 41/83/47
f 1/1/46 20/20/65 41/83/47
s 5
f 21/81/66 22/80/67 42/84/68
f 22/80/67 23/79/69 42/84/68
f 23/79/69 24/78/70 42/84/68
f 24/78/70 25/77/71 42/84/68
f 25/77/71 26/76/72 42/84/68
f 26/76/72 27/75/73 42/84/68
f 27/75/73 28/74/74 42/84/68
f 28/74/74 29/73/75 42/84/68
f 29/73/75 30/72/76 42/84/68
f 30/72/76 31/71/77 42/84/68
f 31/71/77 32/70/78 42/84/68
f 32/70/78 33/69/79 42/84/68
f 33/69/79 34/68/80 42/84/68
f 34/68/80 35/67/81 42/84/68
f 35/67/81 36/66/82 42/84/68
f 36/66/82 37/65/83 42/84/68
f 37/65/83 38/64/84 42/84/68
f 38/64/84 39/63/85 42/84/68
f 39/63/85 40/82/86 42/84/68
f 40/82/86 21/81/66 42/84/68
s 1
f 44/86/87 43/85/88 25/46/89 24/45/90
f 45/87/91 44/86/87 24/45/90 23/44/92
f 46/88/93 45/87/91 23/44/92 22/43/94
f 47/90/95 46/88/93 22/43/94 21/42/96
f 48/91/97 47/89/95 21/62/96 40/61/98
f 49/92/99 48/91/97 40/61/98 39/60/100
f 50/93/101 49/92/99 39/60/100 38/59/102
f 51/94/103 50/93/101 38/59/102 37/58/104
f 52/95/105 51/94/103 37/58/104 36/57/106
f 53/96/107 52/95/105 36/57/106 35/56/108
f 54/97/109 53/96/107 35/56/108 34/55/110
f 55/98/111 54/97/109 34/55/110 33/54/112
f 56/99/113 55/98/111 33/54/112 32/53/114
f 57/100/115 56/99/113 32/53/114 31/52/116
f 58/101/117 57/100/115 31/52/116 30/51/118
f 59/102/119 58/101/117 30/51/118 29/50/120
f 60/103/121 59/102/119 29/50/120 28/49/122
f 61/104/123 60/103/121 28/49/122 27/48/124
f 62/105/125 61/104/123 27/48/124 26/47/126
f 43/85/88 62/105/125 26/47/126 25/46/89
s 2
f 121/166/12 120/106/11 124/169/127 125/199/128
s 1
f 64/108/6 63/176/8 83/174/129 84/129/130
f 65/109/3 64/108/6 84/129/130 85/130/131
f 66/111/4 65/109/3 85/130/131 86/132/132
f 67/112/44 66/110/4 86/131/132 87/133/133
f 68/113/42 67/112/44 87/133/133 88/134/134
f 69/114/40 68/113/42 88/134/134 89/135/135
f 70/115/38 69/114/40 89/135/135 90/136/136
f 71/116/36 70/115/38 90/136/136 91/137/137
f 72/117/34 71/116/36 91/137/137 92/138/138
f 73/118/32 72/117/34 92/138/138 93/139/139
f 74/119/30 73/118/32 93/139/139 94/140/140
f 75/120/28 74/119/30 94/140/140 95/141/141
f 76/121/26 75/120/28 95/141/141 96/142/142
f 77/122/24 76/121/26 96/142/142 97/143/143
f 78/123/22 77/122/24 97/143/143 98/144/144
f 79/124/20 78/123/22 98/144/144 99/145/145
f 80/125/17 79/124/20 99/145/145 100/146/146
f 81/175/18 80/125/17 100/146/146 101/172/147
s 2
f 120/106/11 123/197/14 126/195/148 124/169/127
s 1
f 83/174/129 82/173/149 43/85/88 44/86/87
f 84/129/130 83/174/129 44/86/87 45/87/91
f 85/130/131 84/129/130 45/87/91 46/88/93
f 86/132/132 85/130/131 46/88/93 47/90/95
f 87/133/133 86/131/132 47/89/95 48/91/97
f 88/134/134 87/133/133 48/91/97 49/92/99
f 89/135/135 88/134/134 49/92/99 50/93/101
f 90/136/136 89/135/135 50/93/101 51/94/103
f 91/137/137 90/136/136 51/94/103 52/95/105
f 92/138/138 91/137/137 52/95/105 53/96/107
f 93/139/139 92/138/138 53/96/107 54/97/109
f 94/140/140 93/139/139 54/97/109 55/98/111
f 95/141/141 94/140/140 55/98/111 56/99/113
f 96/142/142 95/141/141 56/99/113 57/100/115
f 97/143/143 96/142/142 57/100/115 58/101/117
f 98/144/144 97/143/143 58/101/117 59/102/119
f 99/145/145 98/144/144 59/102/119 60/103/121
f 100/146/146 99/145/145 60/103/121 61/104/123
f 101/172/147 100/146/146 61/104/123 62/105/125
f 82/173/149 101/172/147 62/105/125 43/85/88
s off
f 4/24/150 5/25/151 103/193/152 102/194/153
f 63/107/154 4/24/155 102/194/156 104/190/157
f 5/25/158 6/203/159 105/204/160 103/193/161
f 6/26/162 81/126/163 106/189/164 105/192/165
f 82/127/166 83/128/167 108/191/168 107/188/169
f 83/128/170 63/107/171 104/190/172 108/191/173
f 81/126/174 101/147/175 109/187/176 106/189/177
f 101/147/178 82/127/179 107/188/180 109/187/181
usemtl lambert6SG
f 102/148/182 103/149/183 111/185/184 110/186/185
f 104/150/186 102/148/187 110/186/188 112/182/189
f 103/149/190 105/151/191 113/184/192 111/185/193
f 105/151/194 106/152/195 114/181/196 113/184/197
f 107/153/198 108/154/199 116/183/200 115/180/201
f 108/154/202 104/150/203 112/182/204 116/183/205
f 106/152/206 109/155/207 117/179/208 114/181/209
f 109/155/210 107/153/211 115/180/212 117/179/213
usemtl initialShadingGroup
f 110/156/214 111/157/215 119/165/216 118/202/217
f 112/158/218 110/205/219 118/206/220 121/198/221
f 111/157/222 113/159/223 122/167/224 119/165/225
f 113/159/226 114/160/227 123/168/228 122/167/229
f 115/161/230 116/162/231 125/170/232 124/196/233
f 116/162/234 112/158/235 121/198/236 125/170/237
f 114/160/238 117/163/239 126/171/240 123/168/241
f 117/163/242 115/161/243 124/196/244 126/171/245
